{
  "accessors": [
    {
      "bufferView": 2,
      "componentType": 5126,
      "count": 5441,
      "max": [
        28.624692916870117,
        10.92790412902832,
        68.02599334716797
      ],
      "min": [
        -28.624692916870117,
        -18.918106079101563,
        0.11808586120605469
      ],
      "type": "VEC3"
    },
    {
      "bufferView": 2,
      "byteOffset": 65292,
      "componentType": 5126,
      "count": 5441,
      "max": [
        0.9999376535415649,
        0.996126115322113,
        0.995499849319458
      ],
      "min": [
        -0.9999376535415649,
        -0.9998211860656738,
        -0.9999717473983765
      ],
      "type": "VEC3"
    },
    {
      "bufferView": 1,
      "componentType": 5126,
      "count": 5441,
      "max": [
        0.968424379825592,
        0.9980468153953552
      ],
      "min": [
        0.001953125698491931,
        0.0019531254656612873
      ],
      "type": "VEC2"
    },
    {
      "bufferView": 0,
      "componentType": 5125,
      "count": 24852,
      "type": "SCALAR"
    },
    {
      "bufferView": 2,
      "byteOffset": 130584,
      "componentType": 5126,
      "count": 8284,
      "max": [
        24.25624656677246,
        25.40643310546875,
        89.23739624023438
      ],
      "min": [
        -24.243833541870117,
        -32.5309944152832,
        17.585800170898438
      ],
      "type": "VEC3"
    },
    {
      "bufferView": 2,
      "byteOffset": 229992,
      "componentType": 5126,
      "count": 8284,
      "max": [
        0.9999979734420776,
        0.9999925494194031,
        0.999576985836029
      ],
      "min": [
        -0.99985271692276,
        -0.9999772310256958,
        -0.999985933303833
      ],
      "type": "VEC3"
    },
    {
      "bufferView": 1,
      "byteOffset": 43528,
      "componentType": 5126,
      "count": 8284,
      "max": [
        0.9899883270263672,
        0.998046875
      ],
      "min": [
        0.0019531387370079756,
        0.0019531389698386192
      ],
      "type": "VEC2"
    },
    {
      "bufferView": 0,
      "byteOffset": 99408,
      "componentType": 5125,
      "count": 41838,
      "type": "SCALAR"
    },
    {
      "bufferView": 2,
      "byteOffset": 329400,
      "componentType": 5126,
      "count": 12375,
      "max": [
        38.71979904174805,
        13.054486274719238,
        85.649169921875
      ],
      "min": [
        -38.71979904174805,
        -14.645276069641113,
        8.852581024169922
      ],
      "type": "VEC3"
    },
    {
      "bufferView": 2,
      "byteOffset": 477900,
      "componentType": 5126,
      "count": 12375,
      "max": [
        0.9982098937034607,
        0.999834418296814,
        0.9999011158943176
      ],
      "min": [
        -0.9982098937034607,
        -0.9997601509094238,
        -0.9999790191650391
      ],
      "type": "VEC3"
    },
    {
      "bufferView": 1,
      "byteOffset": 109800,
      "componentType": 5126,
      "count": 12375,
      "max": [
        0.823881208896637,
        0.998046875
      ],
      "min": [
        0.001953120226971805,
        0.001953120226971805
      ],
      "type": "VEC2"
    },
    {
      "bufferView": 0,
      "byteOffset": 266760,
      "componentType": 5125,
      "count": 27252,
      "type": "SCALAR"
    }
  ],
  "asset": {
    "extras": {
      "author": "zixisun02 (https://sketchfab.com/zixisun51)",
      "license": "CC-BY-4.0 (http://creativecommons.org/licenses/by/4.0/)",
      "source": "https://sketchfab.com/3d-models/tony-tony-chopper-53780b06d7384b1caa74bb577211755b",
      "title": "Tony Tony Chopper"
    },
    "generator": "Sketchfab-12.68.0",
    "version": "2.0"
  },
  "bufferViews": [
    {
      "buffer": 0,
      "byteLength": 375768,
      "name": "floatBufferViews",
      "target": 34963
    },
    {
      "buffer": 0,
      "byteLength": 208800,
      "byteOffset": 375768,
      "byteStride": 8,
      "name": "floatBufferViews",
      "target": 34962
    },
    {
      "buffer": 0,
      "byteLength": 626400,
      "byteOffset": 584568,
      "byteStride": 12,
      "name": "floatBufferViews",
      "target": 34962
    }
  ],
  "buffers": [
    {
      "byteLength": 1210968,
      "uri": "scene.bin"
    }
  ],
  "images": [
    {
      "uri": "textures/Body_baseColor.jpeg"
    },
    {
      "uri": "textures/Body_metallicRoughness.png"
    },
    {
      "uri": "textures/HatBag_baseColor.jpeg"
    },
    {
      "uri": "textures/HatBag_metallicRoughness.png"
    },
    {
      "uri": "textures/AntlesCloth_baseColor.jpeg"
    },
    {
      "uri": "textures/AntlesCloth_metallicRoughness.png"
    }
  ],
  "materials": [
    {
      "doubleSided": true,
      "name": "Body",
      "occlusionTexture": {
        "index": 1
      },
      "pbrMetallicRoughness": {
        "baseColorTexture": {
          "index": 0
        },
        "metallicRoughnessTexture": {
          "index": 1
        }
      }
    },
    {
      "doubleSided": true,
      "name": "HatBag",
      "occlusionTexture": {
        "index": 3
      },
      "pbrMetallicRoughness": {
        "baseColorTexture": {
          "index": 2
        },
        "metallicRoughnessTexture": {
          "index": 3
        }
      }
    },
    {
      "doubleSided": true,
      "name": "AntlesCloth",
      "occlusionTexture": {
        "index": 5
      },
      "pbrMetallicRoughness": {
        "baseColorTexture": {
          "index": 4
        },
        "metallicRoughnessTexture": {
          "index": 5
        }
      }
    }
  ],
  "meshes": [
    {
      "name": "Body_Body_0",
      "primitives": [
        {
          "attributes": {
            "NORMAL": 1,
            "POSITION": 0,
            "TEXCOORD_0": 2
          },
          "indices": 3,
          "material": 0,
          "mode": 4
        }
      ]
    },
    {
      "name": "HatBag_HatBag_0",
      "primitives": [
        {
          "attributes": {
            "NORMAL": 5,
            "POSITION": 4,
            "TEXCOORD_0": 6
          },
          "indices": 7,
          "material": 1,
          "mode": 4
        }
      ]
    },
    {
      "name": "AntlesCloth_AntlesCloth_0",
      "primitives": [
        {
          "attributes": {
            "NORMAL": 9,
            "POSITION": 8,
            "TEXCOORD_0": 10
          },
          "indices": 11,
          "material": 2,
          "mode": 4
        }
      ]
    }
  ],
  "nodes": [
    {
      "children": [
        1
      ],
      "matrix": [
        1.0,
        0.0,
        0.0,
        0.0,
        0.0,
        2.220446049250313e-16,
        -1.0,
        0.0,
        0.0,
        1.0,
        2.220446049250313e-16,
        0.0,
        0.0,
        0.0,
        0.0,
        1.0
      ],
      "name": "Sketchfab_model"
    },
    {
      "children": [
        2
      ],
      "matrix": [
        0.009999999776482582,
        0.0,
        0.0,
        0.0,
        0.0,
        0.0,
        0.009999999776482582,
        0.0,
        0.0,
        -0.009999999776482582,
        0.0,
        0.0,
        0.0,
        0.0,
        0.0,
        1.0
      ],
      "name": "Chopper.FBX"
    },
    {
      "children": [
        3,
        5,
        7
      ],
      "name": "RootNode"
    },
    {
      "children": [
        4
      ],
      "matrix": [
        1.0,
        0.0,
        0.0,
        0.0,
        0.0,
        2.220446049250313e-16,
        -1.0,
        0.0,
        0.0,
        1.0,
        2.220446049250313e-16,
        0.0,
        0.0,
        0.0,
        -2.6828436851501465,
        1.0
      ],
      "name": "Body"
    },
    {
      "mesh": 0,
      "name": "Body_Body_0"
    },
    {
      "children": [
        6
      ],
      "matrix": [
        1.0,
        0.0,
        0.0,
        0.0,
        0.0,
        2.220446049250313e-16,
        -1.0,
        0.0,
        0.0,
        1.0,
        2.220446049250313e-16,
        0.0,
        0.0,
        0.0,
        -2.6828436851501465,
        1.0
      ],
      "name": "HatBag"
    },
    {
      "mesh": 1,
      "name": "HatBag_HatBag_0"
    },
    {
      "children": [
        8
      ],
      "matrix": [
        1.0,
        0.0,
        0.0,
        0.0,
        0.0,
        2.220446049250313e-16,
        -1.0,
        0.0,
        0.0,
        1.0,
        2.220446049250313e-16,
        0.0,
        0.0,
        0.0,
        -2.6828436851501465,
        1.0
      ],
      "name": "AntlesCloth"
    },
    {
      "mesh": 2,
      "name": "AntlesCloth_AntlesCloth_0"
    }
  ],
  "samplers": [
    {
      "magFilter": 9729,
      "minFilter": 9987,
      "wrapS": 10497,
      "wrapT": 10497
    }
  ],
  "scene": 0,
  "scenes": [
    {
      "name": "Sketchfab_Scene",
      "nodes": [
        0
      ]
    }
  ],
  "textures": [
    {
      "sampler": 0,
      "source": 0
    },
    {
      "sampler": 0,
      "source": 1
    },
    {
      "sampler": 0,
      "source": 2
    },
    {
      "sampler": 0,
      "source": 3
    },
    {
      "sampler": 0,
      "source": 4
    },
    {
      "sampler": 0,
      "source": 5
    }
  ]
}
